<svg xmlns="http://www.w3.org/2000/svg" viewBox="0 0 1600 1000" preserveAspectRatio="xMidYMid slice" aria-hidden="true">
  <defs>
    <symbol id="bird" viewBox="0 0 24 24">
      <path d="M23.64 4.94c-.84.37-1.73.62-2.68.73.96-.58 1.7-1.49 2.05-2.58-.9.53-1.9.92-2.96 1.13-.85-.9-2.06-1.47-3.4-1.47-2.57 0-4.66 2.09-4.66 4.66 0 .36.04.72.12 1.06-3.87-.2-7.3-2.05-9.6-4.87-.4.69-.63 1.49-.63 2.34 0 1.62.82 3.04 2.07 3.88-.76-.03-1.48-.23-2.11-.58v.06c0 2.26 1.61 4.14 3.74 4.57-.39.11-.8.16-1.23.16-.3 0-.59-.03-.88-.08.59 1.85 2.31 3.2 4.35 3.23-1.6 1.25-3.6 2-5.79 2-.38 0-.75-.02-1.11-.07 2.06 1.32 4.51 2.09 7.14 2.09 8.57 0 13.26-7.1 13.26-13.25 0-.2 0-.4-.01-.6.91-.66 1.7-1.48 2.32-2.41z"/>
    </symbol>
    <symbol id="bubble" viewBox="0 0 72 58">
      <rect x="4" y="4" width="56" height="38" rx="9"/>
      <path d="M22 39 L14 54 L37 39 Z"/>
      <circle cx="20" cy="23" r="3.2" fill="#fff" opacity="0.75"/>
      <circle cx="33" cy="23" r="3.2" fill="#fff" opacity="0.75"/>
      <circle cx="46" cy="23" r="3.2" fill="#fff" opacity="0.75"/>
    </symbol>
    <symbol id="tweetcard" viewBox="0 0 240 130">
      <rect x="3" y="3" width="234" height="124" rx="14" fill="#ffffff" stroke="#ffffff" stroke-width="2" opacity="0.78"/>
      <circle cx="32" cy="38" r="15" fill="#1d9bf0" opacity="0.24"/>
      <rect x="58" y="27" width="105" height="7" rx="3.5" fill="#1d9bf0" opacity="0.18"/>
      <rect x="58" y="44" width="78" height="7" rx="3.5" fill="#1d9bf0" opacity="0.14"/>
      <rect x="24" y="73" width="186" height="7" rx="3.5" fill="#1d9bf0" opacity="0.16"/>
      <rect x="24" y="92" width="158" height="7" rx="3.5" fill="#1d9bf0" opacity="0.14"/>
    </symbol>
  </defs>

  <rect width="1600" height="1000" fill="none"/>

  <g opacity="0.52">
    <path d="M118 160 C182 125 224 180 174 227 C126 272 56 239 62 196" fill="none" stroke="#1d9bf0" stroke-width="2" stroke-linecap="round" stroke-dasharray="7 9" opacity="0.36"/>
    <g transform="translate(110 108) scale(2.8) rotate(-13)">
      <use href="#bird" width="24" height="24" fill="#1d9bf0"/>
    </g>
    <g transform="translate(129 244) scale(0.7) rotate(-12)" opacity="0.22">
      <use href="#bird" width="24" height="24" fill="#1d9bf0"/>
    </g>
  </g>

  <text x="268" y="260" font-size="72" fill="#1d9bf0" font-family="system-ui, -apple-system, BlinkMacSystemFont, sans-serif" font-weight="800" opacity="0.28">#</text>
  <text x="45" y="414" font-size="48" fill="#1d9bf0" font-family="system-ui, -apple-system, BlinkMacSystemFont, sans-serif" font-weight="800" opacity="0.18">#</text>

  <g transform="translate(151 352) scale(1.18)" fill="#1d9bf0" opacity="0.24">
    <use href="#bubble" width="72" height="58"/>
  </g>

  <g transform="translate(66 486) rotate(-11)" opacity="0.70">
    <use href="#tweetcard" width="240" height="130"/>
  </g>

  <g fill="#1d9bf0" opacity="0.34">
    <circle cx="287" cy="378" r="7"/>
    <line x1="287" y1="402" x2="287" y2="515" stroke="#1d9bf0" stroke-width="2.4" stroke-linecap="round" stroke-dasharray="4 11" opacity="0.48"/>
    <circle cx="286" cy="692" r="7"/>
    <line x1="286" y1="716" x2="286" y2="844" stroke="#1d9bf0" stroke-width="2.4" stroke-linecap="round" stroke-dasharray="4 11" opacity="0.42"/>
  </g>

  <g fill="#ffffff" opacity="0.86">
    <ellipse cx="63" cy="748" rx="102" ry="52"/>
    <ellipse cx="134" cy="710" rx="80" ry="68"/>
    <ellipse cx="-14" cy="790" rx="92" ry="55"/>
    <ellipse cx="228" cy="781" rx="104" ry="49"/>
  </g>
  <g fill="#ffffff" opacity="0.83">
    <ellipse cx="-18" cy="928" rx="132" ry="58"/>
    <ellipse cx="91" cy="898" rx="92" ry="46"/>
    <ellipse cx="196" cy="937" rx="132" ry="59"/>
  </g>
  <text x="174" y="826" font-size="58" fill="#1d9bf0" font-family="system-ui, -apple-system, BlinkMacSystemFont, sans-serif" font-weight="800" opacity="0.26">@</text>
  <g opacity="0.20">
    <g transform="translate(67 740) scale(0.55) rotate(-8)">
      <use href="#bird" width="24" height="24" fill="#1d9bf0"/>
    </g>
    <g transform="translate(126 724) scale(0.42) rotate(8)">
      <use href="#bird" width="24" height="24" fill="#1d9bf0"/>
    </g>
    <g transform="translate(142 842) scale(0.38) rotate(6)">
      <use href="#bird" width="24" height="24" fill="#1d9bf0"/>
    </g>
  </g>

  <g opacity="0.45">
    <path d="M1335 145 C1286 184 1328 233 1380 203 C1421 178 1422 138 1387 119" fill="none" stroke="#1d9bf0" stroke-width="2" stroke-linecap="round" stroke-dasharray="7 9" opacity="0.34"/>
    <g transform="translate(1458 114) scale(2.6) rotate(10)">
      <use href="#bird" width="24" height="24" fill="#1d9bf0"/>
    </g>
    <g transform="translate(1464 246) scale(0.55) rotate(8)" opacity="0.18">
      <use href="#bird" width="24" height="24" fill="#1d9bf0"/>
    </g>
  </g>
  <g transform="translate(1314 316) rotate(12)" opacity="0.56">
    <use href="#tweetcard" width="240" height="130"/>
  </g>
  <g transform="translate(1314 602) scale(1.05)" fill="#1d9bf0" opacity="0.22">
    <use href="#bubble" width="72" height="58"/>
  </g>
  <text x="1278" y="520" font-size="74" fill="#1d9bf0" font-family="system-ui, -apple-system, BlinkMacSystemFont, sans-serif" font-weight="800" opacity="0.28">#</text>
  <text x="1480" y="564" font-size="54" fill="#1d9bf0" font-family="system-ui, -apple-system, BlinkMacSystemFont, sans-serif" font-weight="800" opacity="0.24">#</text>
  <g fill="#1d9bf0" opacity="0.32">
    <circle cx="1415" cy="468" r="7"/>
    <line x1="1415" y1="492" x2="1415" y2="595" stroke="#1d9bf0" stroke-width="2.4" stroke-linecap="round" stroke-dasharray="4 11" opacity="0.40"/>
    <circle cx="1401" cy="858" r="7"/>
    <line x1="1401" y1="884" x2="1401" y2="984" stroke="#1d9bf0" stroke-width="2.4" stroke-linecap="round" stroke-dasharray="4 11" opacity="0.38"/>
  </g>
  <g fill="#ffffff" opacity="0.82">
    <ellipse cx="1488" cy="296" rx="82" ry="38"/>
    <ellipse cx="1548" cy="276" rx="78" ry="55"/>
    <ellipse cx="1624" cy="309" rx="98" ry="47"/>
  </g>
  <g fill="#ffffff" opacity="0.82">
    <ellipse cx="1502" cy="766" rx="104" ry="48"/>
    <ellipse cx="1416" cy="744" rx="78" ry="37"/>
    <ellipse cx="1610" cy="796" rx="112" ry="51"/>
  </g>
  <g opacity="0.18">
    <g transform="translate(1464 292) scale(0.36) rotate(-8)">
      <use href="#bird" width="24" height="24" fill="#1d9bf0"/>
    </g>
    <g transform="translate(1461 638) scale(0.38) rotate(6)">
      <use href="#bird" width="24" height="24" fill="#1d9bf0"/>
    </g>
  </g>
</svg>
