<svg xmlns="http://www.w3.org/2000/svg" viewBox="0 0 1600 1000" preserveAspectRatio="xMidYMid slice" aria-hidden="true">
  <defs>
    <filter id="soft" x="-10%" y="-10%" width="120%" height="120%">
      <feGaussianBlur stdDeviation="0.35"/>
    </filter>
    <pattern id="paperNoise" width="80" height="80" patternUnits="userSpaceOnUse">
      <circle cx="12" cy="18" r="0.9" fill="#9a7b53" opacity="0.11"/>
      <circle cx="54" cy="9" r="0.7" fill="#7b6b50" opacity="0.09"/>
      <circle cx="31" cy="47" r="0.8" fill="#ba8d68" opacity="0.08"/>
      <circle cx="72" cy="68" r="0.7" fill="#7d948e" opacity="0.08"/>
    </pattern>
    <symbol id="bird" viewBox="0 0 24 24">
      <path d="M23.64 4.94c-.84.37-1.73.62-2.68.73.96-.58 1.7-1.49 2.05-2.58-.9.53-1.9.92-2.96 1.13-.85-.9-2.06-1.47-3.4-1.47-2.57 0-4.66 2.09-4.66 4.66 0 .36.04.72.12 1.06-3.87-.2-7.3-2.05-9.6-4.87-.4.69-.63 1.49-.63 2.34 0 1.62.82 3.04 2.07 3.88-.76-.03-1.48-.23-2.11-.58v.06c0 2.26 1.61 4.14 3.74 4.57-.39.11-.8.16-1.23.16-.3 0-.59-.03-.88-.08.59 1.85 2.31 3.2 4.35 3.23-1.6 1.25-3.6 2-5.79 2-.38 0-.75-.02-1.11-.07 2.06 1.32 4.51 2.09 7.14 2.09 8.57 0 13.26-7.1 13.26-13.25 0-.2 0-.4-.01-.6.91-.66 1.7-1.48 2.32-2.41z"/>
    </symbol>
    <symbol id="ledger" viewBox="0 0 360 520">
      <rect x="0" y="0" width="360" height="520" fill="#efe7d5" opacity="0.44"/>
      <rect x="0" y="0" width="360" height="520" fill="url(#paperNoise)" opacity="0.7"/>
      <g stroke="#7a9d9b" stroke-width="1" opacity="0.23">
        <path d="M70 0v520M170 0v520M284 0v520"/>
        <path d="M0 56h360M0 104h360M0 152h360M0 200h360M0 248h360M0 296h360M0 344h360M0 392h360M0 440h360M0 488h360"/>
      </g>
      <g fill="#8b7760" font-family="Georgia, 'Times New Roman', serif" opacity="0.22">
        <text x="16" y="36" font-size="18">No.</text>
        <text x="98" y="36" font-size="14">DATE</text>
        <text x="190" y="36" font-size="14">DESCRIPTION</text>
        <text x="78" y="88" font-size="18">1-07-25</text>
        <text x="78" y="136" font-size="18">1-08-25</text>
        <text x="78" y="184" font-size="18">1-09-25</text>
        <text x="78" y="232" font-size="18">1-10-25</text>
      </g>
    </symbol>
    <symbol id="receipt" viewBox="0 0 260 480">
      <path d="M18 0h224l18 480H0z" fill="#eadfc8" opacity="0.62"/>
      <path d="M18 0h224l18 480H0z" fill="url(#paperNoise)" opacity="0.7"/>
      <g stroke="#6d9698" stroke-width="1.4" opacity="0.27">
        <path d="M38 76h176M38 126h184M38 176h184M38 226h184M38 276h184M38 326h184M38 376h184"/>
        <path d="M68 42h92"/>
      </g>
      <g fill="#a96858" font-family="Georgia, 'Times New Roman', serif" opacity="0.46">
        <text x="172" y="62" font-size="26">No. 4721</text>
        <text x="86" y="116" font-size="20">Jan 7</text>
      </g>
      <g fill="none" stroke="#8a7461" stroke-width="2" stroke-linecap="round" opacity="0.26">
        <path d="M58 158c36-24 49 11 79-10s42-16 68-2"/>
        <path d="M52 210c42-22 52 10 96-6 22-8 36-6 55 4"/>
        <path d="M54 260c28-20 47-2 78-13 25-9 47-5 78 10"/>
        <path d="M56 316c34-22 57-1 88-13 23-9 47-3 70 7"/>
      </g>
    </symbol>
  </defs>

  <rect width="1600" height="1000" fill="#f7f1e5"/>
  <rect width="1600" height="1000" fill="url(#paperNoise)" opacity="0.78"/>

  <g opacity="0.52" transform="translate(-28 115)">
    <use href="#ledger" width="360" height="520"/>
  </g>

  <text x="-9" y="56" fill="#b76355" font-family="Georgia, 'Times New Roman', serif" font-size="23" opacity="0.45" transform="rotate(-9 -9 56)">4721</text>

  <g opacity="0.52" transform="translate(76 690) rotate(-14)">
    <use href="#receipt" width="260" height="480"/>
    <text x="74" y="104" fill="#8a7461" font-family="Georgia, 'Times New Roman', serif" font-size="19" opacity="0.56">FROM THE ARCHIVES</text>
    <text x="112" y="142" fill="#8a7461" font-family="Georgia, 'Times New Roman', serif" font-size="18" opacity="0.44">NOTES</text>
  </g>

  <g transform="translate(112 625)" opacity="0.40">
    <circle cx="90" cy="90" r="78" fill="none" stroke="#c76f60" stroke-width="4"/>
    <circle cx="90" cy="90" r="62" fill="none" stroke="#c76f60" stroke-width="2" stroke-dasharray="7 6"/>
    <text x="33" y="53" fill="#c76f60" font-family="Georgia, 'Times New Roman', serif" font-size="16" letter-spacing="2">DIGITAL ARCHIVE</text>
    <text x="58" y="136" fill="#c76f60" font-family="Georgia, 'Times New Roman', serif" font-size="17" letter-spacing="1">EST. 2001</text>
    <g transform="translate(70 72) scale(1.7) rotate(-15)">
      <use href="#bird" width="24" height="24" fill="#c76f60"/>
    </g>
  </g>

  <g transform="translate(1263 115) rotate(13)" opacity="0.46">
    <circle cx="76" cy="76" r="76" fill="none" stroke="#5f9a9b" stroke-width="4"/>
    <circle cx="76" cy="76" r="60" fill="none" stroke="#5f9a9b" stroke-width="2" stroke-dasharray="8 6"/>
    <text x="30" y="38" fill="#5f9a9b" font-family="Georgia, 'Times New Roman', serif" font-size="16" letter-spacing="3">ARCHIVE</text>
    <text x="45" y="72" fill="#5f9a9b" font-family="Georgia, 'Times New Roman', serif" font-size="17">JAN 07</text>
    <text x="50" y="98" fill="#5f9a9b" font-family="Georgia, 'Times New Roman', serif" font-size="17">2025</text>
    <text x="31" y="130" fill="#5f9a9b" font-family="Georgia, 'Times New Roman', serif" font-size="14" letter-spacing="4">RECORD</text>
  </g>

  <g transform="translate(1214 565) rotate(-2)" opacity="0.36">
    <rect x="0" y="0" width="330" height="250" fill="#f0e5d1" opacity="0.55"/>
    <rect x="0" y="0" width="330" height="250" fill="url(#paperNoise)" opacity="0.65"/>
    <g stroke="#7a9d9b" stroke-width="1" opacity="0.22">
      <path d="M0 54h330M0 106h330M0 158h330M0 210h330"/>
      <path d="M86 0v250"/>
    </g>
    <g fill="none" stroke="#7e6858" stroke-width="2" stroke-linecap="round" opacity="0.33">
      <path d="M76 58c45-32 71 6 104-16 39-25 70-19 97-1"/>
      <path d="M74 98c42-27 67 10 102-14 35-24 72-16 97 5"/>
      <path d="M74 138c39-22 67 7 101-9 36-17 70-9 100 7"/>
      <path d="M72 178c44-26 61 10 103-10 35-16 71-7 102 8"/>
    </g>
    <text x="86" y="36" fill="#8a7461" font-family="Georgia, 'Times New Roman', serif" font-size="24" opacity="0.5">Jan 7, 2025</text>
  </g>

  <g transform="translate(1240 780) rotate(7)" opacity="0.54">
    <use href="#receipt" width="270" height="500"/>
  </g>

  <g opacity="0.30" filter="url(#soft)">
    <path d="M0 756 C80 730 120 780 211 764 C292 750 339 798 402 778" fill="none" stroke="#d5c5aa" stroke-width="22"/>
    <path d="M1164 452 C1233 437 1282 466 1342 447 C1412 425 1458 456 1518 438" fill="none" stroke="#dfcfb5" stroke-width="16"/>
  </g>
</svg>
